<svg xmlns="http://www.w3.org/2000/svg" viewBox="0 0 100 100" width="100%" height="100%">
  <defs>
    <linearGradient id="sunnyGradient" x1="0%" y1="0%" x2="100%" y2="100%">
      <stop offset="0%" stop-color="#FFD124" />
      <stop offset="100%" stop-color="#FF9200" />
    </linearGradient>
    
    <filter id="sunShadow" x="-20%" y="-20%" width="140%" height="140%">
      <feDropShadow dx="1" dy="3" stdDeviation="2" flood-color="#553300" flood-opacity="0.15" />
    </filter>
  </defs>

  <g filter="url(#sunShadow)">
    
    <g stroke="url(#sunnyGradient)" stroke-width="3.5" stroke-linecap="round">
      <line x1="50" y1="22" x2="50" y2="10" />
      <line x1="50" y1="78" x2="50" y2="90" />
      <line x1="22" y1="50" x2="10" y2="50" />
      <line x1="78" y1="50" x2="90" y2="50" />
      
      <line x1="30.2" y1="30.2" x2="21.7" y2="21.7" />
      <line x1="69.8" y1="69.8" x2="78.3" y2="78.3" />
      <line x1="69.8" y1="30.2" x2="78.3" y2="21.7" />
      <line x1="30.2" y1="69.8" x2="21.7" y2="78.3" />
      
      <line x1="40" y1="24.2" x2="34.2" y2="14.2" />
      <line x1="60" y1="75.8" x2="65.8" y2="85.8" />
      <line x1="60" y1="24.2" x2="65.8" y2="14.2" />
      <line x1="40" y1="75.8" x2="34.2" y2="85.8" />
      
      <line x1="24.2" y1="40" x2="14.2" y2="34.2" />
      <line x1="75.8" y1="60" x2="85.8" y2="65.8" />
      <line x1="75.8" y1="40" x2="85.8" y2="34.2" />
      <line x1="24.2" y1="60" x2="14.2" y2="65.8" />
    </g>
    
    <circle cx="50" cy="50" r="21" fill="url(#sunnyGradient)" />
    
  </g>
</svg>
